# xmcd
#
# Track frame offsets: 
#        150
#        16560
#        34808
#        60364
#        71363
#        95107
#        123180
#        140168
#        161359
#        177498
#        202072
#        214478
#        230521
#        255761
#        270095
#        279998
#
# Disc length: 3917 seconds
#
# Revision: 0
# Processed by: cddbd v1.5.2PL0 Copyright (c) Steve Scherf et al.
# Submitted via: ExactAudioCopy v1.0b3
#
DISCID=da0f4b10
DTITLE=Gobbo and Otprilike ovako - In Memoriam Jadran Zlodre Gobbo 1952-
DTITLE=2008
DYEAR=2009
DGENRE=Blues
TTITLE0=Paranoja
TTITLE1=Novo jutro
TTITLE2=O, da
TTITLE3=Skoljka
TTITLE4=Soba br. 5
TTITLE5=Kind Hearted Woman
TTITLE6=Na rubu
TTITLE7=Monkey On The Limb
TTITLE8=Sad bi moga
TTITLE9=Paradentoza blues
TTITLE10=Cold Autmn Night
TTITLE11=Marijetica
TTITLE12=Washin' Machine
TTITLE13=Volim te
TTITLE14=Ferata
TTITLE15=Parobrod - 1983
EXTD=
EXTT0=
EXTT1=
EXTT2=
EXTT3=
EXTT4=
EXTT5=
EXTT6=
EXTT7=
EXTT8=
EXTT9=
EXTT10=
EXTT11=
EXTT12=
EXTT13=
EXTT14=
EXTT15=
PLAYORDER=
